<svg xmlns="http://www.w3.org/2000/svg" viewBox="0 0 100 100">
  <rect width="100" height="100" rx="22" fill="#C4704A"/>
  <path d="M 72 30 C 72 18, 56 16, 50 16 C 36 16, 26 24, 26 38 C 26 50, 38 52, 50 52 C 62 52, 74 54, 74 66 C 74 80, 60 84, 50 84 C 38 84, 26 80, 26 70" fill="none" stroke="#FAFAF7" stroke-width="20" stroke-linecap="round" stroke-linejoin="round"/>
  <path d="M 72 30 C 72 18, 56 16, 50 16 C 36 16, 26 24, 26 38 C 26 50, 38 52, 50 52 C 62 52, 74 54, 74 66 C 74 80, 60 84, 50 84 C 38 84, 26 80, 26 70" fill="none" stroke="#C4704A" stroke-width="7" stroke-linecap="round" stroke-linejoin="round"/>
</svg>
